<?xml version="1.0" encoding="UTF-8" standalone="no"?>
<!-- Created with Inkscape (http://www.inkscape.org/) -->

<svg
   xmlns:dc="http://purl.org/dc/elements/1.1/"
   xmlns:cc="http://creativecommons.org/ns#"
   xmlns:rdf="http://www.w3.org/1999/02/22-rdf-syntax-ns#"
   xmlns:svg="http://www.w3.org/2000/svg"
   xmlns="http://www.w3.org/2000/svg"
   xmlns:sodipodi="http://sodipodi.sourceforge.net/DTD/sodipodi-0.dtd"
   xmlns:inkscape="http://www.inkscape.org/namespaces/inkscape"
   id="svg2"
   version="1.1"
   inkscape:version="0.48.4 r9939"
   width="260"
   height="150"
   xml:space="preserve"
   sodipodi:docname="orulo-branco.svg"><metadata
     id="metadata8"><rdf:RDF><cc:Work
         rdf:about=""><dc:format>image/svg+xml</dc:format><dc:type
           rdf:resource="http://purl.org/dc/dcmitype/StillImage" /><dc:title /></cc:Work></rdf:RDF></metadata><defs
     id="defs6"><clipPath
       clipPathUnits="userSpaceOnUse"
       id="clipPath16"><path
         d="M 0,768 1024,768 1024,0 0,0 0,768 z"
         id="path18"
         inkscape:connector-curvature="0" /></clipPath></defs><sodipodi:namedview
     pagecolor="#ffffff"
     bordercolor="#666666"
     borderopacity="1"
     objecttolerance="10"
     gridtolerance="10"
     guidetolerance="10"
     inkscape:pageopacity="0"
     inkscape:pageshadow="2"
     inkscape:window-width="1274"
     inkscape:window-height="716"
     id="namedview4"
     showgrid="false"
     inkscape:zoom="1.4247736"
     inkscape:cx="10.139521"
     inkscape:cy="150.37461"
     inkscape:window-x="1571"
     inkscape:window-y="50"
     inkscape:window-maximized="0"
     inkscape:current-layer="g3061" /><g
     id="g10"
     inkscape:groupmode="layer"
     inkscape:label="orulo-broker_curvas"
     transform="matrix(1.25,0,0,-1.25,0,150)"><g
       id="g12"
       transform="translate(-44.467955,160.40227)"><g
         id="g14"
         clip-path="url(#clipPath16)"><g
           id="g3855"
           transform="translate(-359.61799,-484.09262)"><g
             style="fill:#ffffff"
             transform="translate(416.8867,363.0684)"
             id="g20"><path
               inkscape:connector-curvature="0"
               id="path22"
               style="fill:#ffffff;fill-opacity:1;fill-rule:evenodd;stroke:none"
               d="m 0,0 21.83,-37.819 0.313,0.54 21.146,36.627 C 36.957,-3.79 29.824,-5.557 22.277,-5.557 14.223,-5.557 6.641,-3.544 0,0" /></g><g
             transform="translate(460.6406,395.1943)"
             id="g24"><path
               inkscape:connector-curvature="0"
               id="path26"
               style="fill:#ffffff;fill-opacity:1;fill-rule:nonzero;stroke:none"
               d="m 0,0 c 0,3.063 -0.564,5.972 -1.68,8.726 -1.115,2.753 -2.724,5.209 -4.814,7.355 -2.047,2.132 -4.404,3.755 -7.088,4.898 -2.697,1.144 -5.535,1.723 -8.5,1.723 -2.979,0 -5.816,-0.564 -8.512,-1.693 -2.683,-1.13 -5.084,-2.768 -7.174,-4.928 -2.089,-2.118 -3.699,-4.56 -4.8,-7.313 -1.1,-2.754 -1.651,-5.676 -1.651,-8.768 0,-3.064 0.551,-5.958 1.651,-8.684 1.101,-2.724 2.711,-5.167 4.8,-7.313 2.09,-2.16 4.477,-3.797 7.159,-4.927 2.668,-1.13 5.519,-1.694 8.527,-1.694 2.951,0 5.746,0.564 8.416,1.694 2.654,1.13 5.055,2.767 7.172,4.927 2.09,2.146 3.699,4.589 4.814,7.328 C -0.564,-5.916 0,-3.036 0,0 m 10.25,0 c 0,-4.307 -0.805,-8.373 -2.414,-12.199 -1.623,-3.84 -3.967,-7.257 -7.061,-10.264 -3.105,-3.008 -6.621,-5.308 -10.546,-6.904 -3.911,-1.595 -8.018,-2.4 -12.311,-2.4 -4.361,0 -8.512,0.805 -12.481,2.413 -3.953,1.625 -7.441,3.913 -10.476,6.891 -3.092,3.007 -5.436,6.409 -7.029,10.222 -1.596,3.798 -2.401,7.878 -2.401,12.241 0,4.334 0.805,8.414 2.401,12.24 1.593,3.841 3.937,7.272 7.029,10.307 3.092,3.008 6.594,5.295 10.506,6.861 3.91,1.568 8.06,2.359 12.451,2.359 4.35,0 8.471,-0.791 12.383,-2.359 3.896,-1.566 7.398,-3.853 10.474,-6.861 C 3.869,19.483 6.213,16.024 7.836,12.184 9.445,8.33 10.25,4.278 10.25,0 m -32.332,40.303 14.971,6.634 0,-8.536 -14.971,-2.366 0,4.268 z" /></g><g
             transform="translate(487.7246,398.0029)"
             id="g28"><path
               inkscape:connector-curvature="0"
               id="path30"
               style="fill:#ffffff;fill-opacity:1;fill-rule:nonzero;stroke:none"
               d="M 0,0 C 0.965,2.592 2.24,4.509 3.826,5.749 5.412,6.99 7.375,7.61 9.721,7.61 c 1.267,0 2.515,-0.151 3.742,-0.454 1.226,-0.303 2.433,-0.745 3.619,-1.324 l -3.227,-7.61 c -0.771,0.55 -1.605,0.958 -2.501,1.219 -0.897,0.262 -1.897,0.394 -2.999,0.394 -2.978,0 -5.115,-1.193 -6.412,-3.578 C 0.646,-6.129 0,-10.134 0,-15.759 l 0,-17.207 -8.977,0 0,39.294 L 0,6.328 0,0 z" /></g><g
             transform="translate(517.9336,404.249)"
             id="g32"><path
               inkscape:connector-curvature="0"
               id="path34"
               style="fill:#ffffff;fill-opacity:1;fill-rule:nonzero;stroke:none"
               d="m 0,0 0,-22.088 c 0,-3.806 0.787,-6.535 2.357,-8.189 1.573,-1.656 4.123,-2.483 7.653,-2.483 3.529,0 6.082,0.827 7.652,2.483 1.572,1.654 2.358,4.383 2.358,8.189 l 0,22.088 8.976,0 0,-19.399 c 0,-7.501 -1.504,-12.947 -4.508,-16.338 -3.006,-3.393 -7.804,-5.088 -14.394,-5.088 -6.701,0 -11.555,1.681 -14.561,5.046 -3.006,3.364 -4.508,8.824 -4.508,16.38 L -8.975,0 0,0 z" /></g><path
             inkscape:connector-curvature="0"
             id="path36"
             style="fill:#ffffff;fill-opacity:1;fill-rule:nonzero;stroke:none"
             d="m 553.688,429.149 8.975,0 0,-64.112 -8.975,0 0,64.112 z" /><g
             transform="translate(600.5273,384.5186)"
             id="g38"><path
               inkscape:connector-curvature="0"
               id="path40"
               style="fill:#ffffff;fill-opacity:1;fill-rule:nonzero;stroke:none"
               d="m 0,0 c 0,3.64 -1.172,6.722 -3.516,9.245 -2.343,2.523 -5.213,3.784 -8.603,3.784 -3.365,0 -6.225,-1.261 -8.584,-3.784 C -23.061,6.722 -24.238,3.64 -24.238,0 c 0,-3.64 1.177,-6.722 3.535,-9.244 2.359,-2.524 5.219,-3.785 8.584,-3.785 3.363,0 6.224,1.261 8.582,3.785 C -1.18,-6.722 0,-3.64 0,0 m -33.711,0.083 c 0,2.867 0.545,5.577 1.635,8.128 1.088,2.55 2.652,4.818 4.693,6.804 2.014,1.958 4.33,3.461 6.949,4.508 2.62,1.048 5.364,1.572 8.233,1.572 2.949,0 5.728,-0.524 8.334,-1.572 2.605,-1.047 4.943,-2.592 7.01,-4.632 2.068,-2.013 3.64,-4.288 4.716,-6.825 1.075,-2.538 1.614,-5.198 1.614,-7.983 0,-2.896 -0.532,-5.612 -1.594,-8.148 -1.061,-2.538 -2.613,-4.785 -4.652,-6.743 -2.151,-2.068 -4.538,-3.633 -7.157,-4.694 -2.619,-1.061 -5.377,-1.593 -8.271,-1.593 -2.842,0 -5.572,0.532 -8.192,1.593 -2.619,1.061 -4.949,2.599 -6.99,4.611 -2.068,2.041 -3.638,4.329 -4.715,6.867 -1.076,2.537 -1.613,5.239 -1.613,8.107" /></g><g
             transform="translate(545.0801,335.4766)"
             id="g42"><path
               inkscape:connector-curvature="0"
               id="path44"
               style="fill:#ffffff;fill-opacity:1;fill-rule:nonzero;stroke:none"
               d="M 0,0 C 1.184,0 2.113,0.408 2.788,1.226 3.463,2.043 3.801,3.051 3.801,4.252 3.801,5.436 3.459,6.432 2.775,7.24 2.092,8.049 1.166,8.453 0,8.453 -1.117,8.453 -2.014,8.04 -2.688,7.215 -3.363,6.39 -3.701,5.402 -3.701,4.252 c 0,-1.168 0.333,-2.168 1,-3.002 C -2.034,0.417 -1.134,0 0,0 m -5.827,-1.6 0,21.705 2.251,0 0,-11.953 0.05,0 c 1.016,1.534 2.376,2.301 4.076,2.301 1.634,0 2.959,-0.604 3.976,-1.812 C 5.543,7.432 6.052,5.993 6.052,4.326 6.052,2.559 5.551,1.063 4.551,-0.162 3.551,-1.388 2.184,-2 0.45,-2 -0.351,-2 -1.097,-1.801 -1.788,-1.4 -2.48,-1 -3.06,-0.459 -3.526,0.226 l -0.05,0 0,-1.826 -2.251,0 z" /></g><g
             transform="translate(555.7324,345.5801)"
             id="g46"><path
               inkscape:connector-curvature="0"
               id="path48"
               style="fill:#ffffff;fill-opacity:1;fill-rule:nonzero;stroke:none"
               d="m 0,0 0,-1.9 0.075,0 c 0.283,0.699 0.704,1.25 1.263,1.65 0.558,0.399 1.204,0.6 1.937,0.6 0.634,0 1.251,-0.192 1.851,-0.576 L 4.101,-2.275 C 3.734,-1.959 3.275,-1.801 2.726,-1.801 2.142,-1.801 1.658,-1.922 1.275,-2.164 0.892,-2.405 0.612,-2.748 0.438,-3.189 0.263,-3.631 0.146,-4.064 0.088,-4.489 0.028,-4.914 0,-5.402 0,-5.952 l 0,-5.751 -2.251,0 L -2.251,0 0,0 z" /></g><g
             transform="translate(570.1357,342.5781)"
             id="g50"><path
               inkscape:connector-curvature="0"
               id="path52"
               style="fill:#ffffff;fill-opacity:1;fill-rule:nonzero;stroke:none"
               d="m 0,0 c -0.783,0.801 -1.725,1.201 -2.825,1.201 -1.101,0 -2.043,-0.4 -2.826,-1.201 -0.784,-0.799 -1.175,-1.758 -1.175,-2.875 0,-1.101 0.391,-2.055 1.175,-2.863 0.783,-0.809 1.725,-1.213 2.826,-1.213 1.1,0 2.042,0.404 2.825,1.213 0.784,0.808 1.176,1.762 1.176,2.863 C 1.176,-1.758 0.784,-0.799 0,0 m -7.264,1.551 c 1.208,1.201 2.688,1.801 4.439,1.801 1.75,0 3.229,-0.6 4.438,-1.801 1.209,-1.2 1.814,-2.676 1.814,-4.426 0,-1.75 -0.605,-3.227 -1.814,-4.426 -1.209,-1.201 -2.688,-1.801 -4.438,-1.801 -1.751,0 -3.231,0.6 -4.439,1.801 -1.209,1.199 -1.813,2.676 -1.813,4.426 0,1.75 0.604,3.226 1.813,4.426" /></g><g
             transform="translate(578.0137,355.582)"
             id="g54"><path
               inkscape:connector-curvature="0"
               id="path56"
               style="fill:#ffffff;fill-opacity:1;fill-rule:nonzero;stroke:none"
               d="m 0,0 0,-14.404 4.401,4.402 2.976,0 -5.001,-4.852 5.501,-6.851 -2.926,0 -4.176,5.326 -0.775,-0.775 0,-4.551 -2.251,0 L -2.251,0 0,0 z" /></g><g
             transform="translate(588.6406,341.0527)"
             id="g58"><path
               inkscape:connector-curvature="0"
               id="path60"
               style="fill:#ffffff;fill-opacity:1;fill-rule:nonzero;stroke:none"
               d="M 0,0 6.552,0 C 6.419,0.9 6.068,1.613 5.502,2.139 4.935,2.664 4.21,2.926 3.326,2.926 2.459,2.926 1.722,2.651 1.113,2.102 0.505,1.551 0.134,0.852 0,0 m 8.803,-1.699 -8.928,0 c 0.017,-1.051 0.351,-1.959 1.001,-2.727 0.649,-0.766 1.491,-1.15 2.525,-1.15 0.817,0 1.489,0.187 2.013,0.562 0.525,0.375 1.022,0.947 1.488,1.713 L 8.803,-4.375 C 8.253,-5.376 7.498,-6.16 6.54,-6.727 5.581,-7.293 4.526,-7.576 3.376,-7.576 c -1.75,0 -3.147,0.583 -4.189,1.75 -1.041,1.167 -1.562,2.635 -1.562,4.401 0,1.867 0.491,3.384 1.476,4.552 0.983,1.166 2.391,1.75 4.225,1.75 1.784,0 3.143,-0.58 4.076,-1.738 C 8.336,1.98 8.803,0.484 8.803,-1.35 l 0,-0.349 z" /></g><g
             transform="translate(601.7695,345.5801)"
             id="g62"><path
               inkscape:connector-curvature="0"
               id="path64"
               style="fill:#ffffff;fill-opacity:1;fill-rule:nonzero;stroke:none"
               d="m 0,0 0,-1.9 0.075,0 c 0.283,0.699 0.704,1.25 1.263,1.65 0.558,0.399 1.204,0.6 1.937,0.6 0.634,0 1.251,-0.192 1.851,-0.576 L 4.101,-2.275 C 3.734,-1.959 3.275,-1.801 2.726,-1.801 2.142,-1.801 1.658,-1.922 1.275,-2.164 0.892,-2.405 0.612,-2.748 0.438,-3.189 0.263,-3.631 0.146,-4.064 0.088,-4.489 0.028,-4.914 0,-5.402 0,-5.952 l 0,-5.751 -2.251,0 L -2.251,0 0,0 z" /></g></g></g><g
         id="g3061"
         transform="translate(-1.560625,-0.641212)"><g
           id="g66"
           transform="translate(58.829335,-120.38301)"><path
             d="m 0,0 21.83,-37.819 0.313,0.54 21.146,36.627 C 36.957,-3.79 29.824,-5.557 22.277,-5.557 14.223,-5.557 6.641,-3.544 0,0"
             style="fill:#0080c7;fill-opacity:1;fill-rule:evenodd;stroke:none"
             id="path68"
             inkscape:connector-curvature="0" /></g><g
           id="g70"
           transform="translate(102.58323,-88.257106)"
           style="fill:#ffffff"><path
             d="m 0,0 c 0,3.063 -0.564,5.972 -1.68,8.726 -1.115,2.753 -2.724,5.209 -4.814,7.355 -2.047,2.132 -4.404,3.755 -7.088,4.898 -2.697,1.144 -5.535,1.723 -8.5,1.723 -2.979,0 -5.816,-0.564 -8.512,-1.693 -2.683,-1.13 -5.084,-2.768 -7.174,-4.928 -2.089,-2.118 -3.699,-4.56 -4.8,-7.313 -1.1,-2.754 -1.651,-5.676 -1.651,-8.768 0,-3.064 0.551,-5.958 1.651,-8.684 1.101,-2.724 2.711,-5.167 4.8,-7.313 2.09,-2.16 4.477,-3.797 7.159,-4.927 2.668,-1.13 5.519,-1.694 8.527,-1.694 2.951,0 5.746,0.564 8.416,1.694 2.654,1.13 5.055,2.767 7.172,4.927 2.09,2.146 3.699,4.589 4.814,7.328 C -0.564,-5.916 0,-3.036 0,0 m 10.25,0 c 0,-4.307 -0.805,-8.373 -2.414,-12.199 -1.623,-3.84 -3.967,-7.257 -7.061,-10.264 -3.105,-3.008 -6.621,-5.308 -10.546,-6.904 -3.911,-1.595 -8.018,-2.4 -12.311,-2.4 -4.361,0 -8.512,0.805 -12.481,2.413 -3.953,1.625 -7.441,3.913 -10.476,6.891 -3.092,3.007 -5.436,6.409 -7.029,10.222 -1.596,3.798 -2.401,7.878 -2.401,12.241 0,4.334 0.805,8.414 2.401,12.24 1.593,3.841 3.937,7.272 7.029,10.307 3.092,3.008 6.594,5.295 10.506,6.861 3.91,1.568 8.06,2.359 12.451,2.359 4.35,0 8.471,-0.791 12.383,-2.359 3.896,-1.566 7.398,-3.853 10.474,-6.861 C 3.869,19.483 6.213,16.024 7.836,12.184 9.445,8.33 10.25,4.278 10.25,0 m -32.332,40.303 14.971,6.634 0,-8.536 -14.971,-2.366 0,4.268 z"
             style="fill:#0080c7;fill-opacity:1;fill-rule:nonzero;stroke:none"
             id="path72"
             inkscape:connector-curvature="0" /></g><g
           id="g74"
           transform="translate(129.66724,-85.448506)"
           style="fill:#333333"><path
             d="M 0,0 C 0.965,2.592 2.24,4.509 3.826,5.749 5.412,6.99 7.375,7.61 9.721,7.61 c 1.267,0 2.515,-0.151 3.742,-0.454 1.226,-0.303 2.433,-0.745 3.619,-1.324 l -3.227,-7.61 c -0.771,0.55 -1.605,0.958 -2.501,1.219 -0.897,0.262 -1.897,0.394 -2.999,0.394 -2.978,0 -5.115,-1.193 -6.412,-3.578 C 0.646,-6.129 0,-10.134 0,-15.759 l 0,-17.207 -8.977,0 0,39.294 L 0,6.328 0,0 z"
             style="fill:#333333;fill-opacity:1;fill-rule:nonzero;stroke:none"
             id="path76"
             inkscape:connector-curvature="0" /></g><g
           id="g78"
           transform="translate(159.87624,-79.20241)"
           style="fill:#333333"><path
             d="m 0,0 0,-22.088 c 0,-3.806 0.787,-6.535 2.357,-8.189 1.573,-1.656 4.123,-2.483 7.653,-2.483 3.529,0 6.082,0.827 7.652,2.483 1.572,1.654 2.358,4.383 2.358,8.189 l 0,22.088 8.976,0 0,-19.399 c 0,-7.501 -1.504,-12.947 -4.508,-16.338 -3.006,-3.393 -7.804,-5.088 -14.394,-5.088 -6.701,0 -11.555,1.681 -14.561,5.046 -3.006,3.364 -4.508,8.824 -4.508,16.38 L -8.975,0 0,0 z"
             style="fill:#333333;fill-opacity:1;fill-rule:nonzero;stroke:none"
             id="path80"
             inkscape:connector-curvature="0" /></g><path
           d="m 195.63064,-54.302407 8.975,0 0,-64.112003 -8.975,0 0,64.112003 z"
           style="fill:#333333;fill-opacity:1;fill-rule:nonzero;stroke:none"
           id="path82"
           inkscape:connector-curvature="0" /><g
           id="g84"
           transform="translate(242.46993,-98.93281)"
           style="fill:#333333"><path
             d="m 0,0 c 0,3.64 -1.172,6.722 -3.516,9.245 -2.343,2.523 -5.213,3.784 -8.603,3.784 -3.365,0 -6.225,-1.261 -8.584,-3.784 C -23.061,6.722 -24.238,3.64 -24.238,0 c 0,-3.64 1.177,-6.722 3.535,-9.244 2.359,-2.524 5.219,-3.785 8.584,-3.785 3.363,0 6.224,1.261 8.582,3.785 C -1.18,-6.722 0,-3.64 0,0 m -33.711,0.083 c 0,2.867 0.545,5.577 1.635,8.128 1.088,2.55 2.652,4.818 4.693,6.804 2.014,1.958 4.33,3.461 6.949,4.508 2.62,1.048 5.364,1.572 8.233,1.572 2.949,0 5.728,-0.524 8.334,-1.572 2.605,-1.047 4.943,-2.592 7.01,-4.632 2.068,-2.013 3.64,-4.288 4.716,-6.825 1.075,-2.538 1.614,-5.198 1.614,-7.983 0,-2.896 -0.532,-5.612 -1.594,-8.148 -1.061,-2.538 -2.613,-4.785 -4.652,-6.743 -2.151,-2.068 -4.538,-3.633 -7.157,-4.694 -2.619,-1.061 -5.377,-1.593 -8.271,-1.593 -2.842,0 -5.572,0.532 -8.192,1.593 -2.619,1.061 -4.949,2.599 -6.99,4.611 -2.068,2.041 -3.638,4.329 -4.715,6.867 -1.076,2.537 -1.613,5.239 -1.613,8.107"
             style="fill:#333333;fill-opacity:1;fill-rule:nonzero;stroke:none"
             id="path86"
             inkscape:connector-curvature="0" /></g></g></g></g></svg>